<?xml version="1.0" encoding="UTF-8" standalone="no" ?>
<!DOCTYPE svg PUBLIC "-//W3C//DTD SVG 1.1//EN" "http://www.w3.org/Graphics/SVG/1.1/DTD/svg11.dtd">
<svg xmlns="http://www.w3.org/2000/svg" xmlns:xlink="http://www.w3.org/1999/xlink" version="1.1" width="500" height="500" viewBox="0 0 500 500" xml:space="preserve">
<desc>Created with Fabric.js 4.6.0</desc>
<defs>
</defs>
<g transform="matrix(2.17 0 0 2.17 296.74 186.72)" id="xOukOOX9DdfPZawQxJqOV"  >
<path style="stroke: rgb(92,184,92); stroke-width: 2; stroke-dasharray: none; stroke-linecap: butt; stroke-dashoffset: 0; stroke-linejoin: miter; stroke-miterlimit: 4; fill: none; fill-rule: nonzero; opacity: 1;" vector-effect="non-scaling-stroke"  transform=" translate(-50, -43.3)" d="M 75 0 L 100 43.30127 L 75 86.60254 L 25 86.60254 L 0 43.30127 L 25 0 z" stroke-linecap="round" />
</g>
<g transform="matrix(1.48 0 0 1.48 186.07 384.14)" id="DP_jkBxAvazrLwWtzyVy1"  >
<path style="stroke: rgb(92,184,92); stroke-width: 2; stroke-dasharray: none; stroke-linecap: butt; stroke-dashoffset: 0; stroke-linejoin: miter; stroke-miterlimit: 4; fill: none; fill-rule: nonzero; opacity: 1;" vector-effect="non-scaling-stroke"  transform=" translate(0, 0)" d="M 25 -43.30127 L 50 0 L 25 43.30127 L -25 43.30127 L -50 0 L -25 -43.30127 z" stroke-linecap="round" />
</g>
<g transform="matrix(0.89 0 0 0.89 139.33 90.58)" id="y1n20o846G7rIQUKqHZEa"  >
<path style="stroke: rgb(92,184,92); stroke-width: 2; stroke-dasharray: none; stroke-linecap: butt; stroke-dashoffset: 0; stroke-linejoin: miter; stroke-miterlimit: 4; fill: none; fill-rule: nonzero; opacity: 1;" vector-effect="non-scaling-stroke"  transform=" translate(0, 0)" d="M 25 -43.30127 L 50 0 L 25 43.30127 L -25 43.30127 L -50 0 L -25 -43.30127 z" stroke-linecap="round" />
</g>
<g transform="matrix(0.89 0 0 0.89 360.75 343.44)" id="xyWUcvre-3i1vgv5etL9m"  >
<path style="stroke: rgb(92,184,92); stroke-width: 2; stroke-dasharray: none; stroke-linecap: butt; stroke-dashoffset: 0; stroke-linejoin: miter; stroke-miterlimit: 4; fill: none; fill-rule: nonzero; opacity: 1;" vector-effect="non-scaling-stroke"  transform=" translate(0, 0)" d="M 25 -43.30127 L 50 0 L 25 43.30127 L -25 43.30127 L -50 0 L -25 -43.30127 z" stroke-linecap="round" />
</g>
<g transform="matrix(2.46 0 0 2.46 232.41 301.65)" id="hEvmrgfCV6Qm90jsBKmlC"  >
<path style="stroke: rgb(92,184,92); stroke-width: 2; stroke-dasharray: none; stroke-linecap: butt; stroke-dashoffset: 0; stroke-linejoin: miter; stroke-miterlimit: 4; fill: rgb(255,255,255); fill-opacity: 0; fill-rule: nonzero; opacity: 1;" vector-effect="non-scaling-stroke"  transform=" translate(0, 0)" d="M 4.60993 -8.12087 L -4.60993 8.12087 z" stroke-linecap="round" />
</g>
<g transform="matrix(2.32 0 0 2.32 344.02 294.04)" id="Laljq4tnyCN71VStAxahU"  >
<path style="stroke: rgb(92,184,92); stroke-width: 2; stroke-dasharray: none; stroke-linecap: butt; stroke-dashoffset: 0; stroke-linejoin: miter; stroke-miterlimit: 4; fill: rgb(255,255,255); fill-opacity: 0; fill-rule: nonzero; opacity: 1;" vector-effect="non-scaling-stroke"  transform=" translate(0, 0)" d="M 2.94763 -5.91579 L -2.94764 5.915779999999999 z" stroke-linecap="round" />
</g>
<g transform="matrix(2.02 0 0 2.02 196.26 120.59)" id="VfC5OAonThjkxGVsbOQZL"  >
<path style="stroke: rgb(92,184,92); stroke-width: 2; stroke-dasharray: none; stroke-linecap: butt; stroke-dashoffset: 0; stroke-linejoin: miter; stroke-miterlimit: 4; fill: rgb(255,255,255); fill-opacity: 0; fill-rule: nonzero; opacity: 1;" vector-effect="non-scaling-stroke"  transform=" translate(0, 0)" d="M 11.22997 5.34081 L -9.616480000000001 -5.340799999999999 L -11.229970000000002 -5.340799999999999" stroke-linecap="round" />
</g>
</svg>